<svg width="30" height="30" viewBox="0 0 30 30" fill="none" xmlns="http://www.w3.org/2000/svg">
<path d="M11.25 3.75L10 10M20 3.75L18.75 10M27.5 10H2.5M8.5 26.25H21.5C23.6002 26.25 24.6503 26.25 25.4525 25.8413C26.1581 25.4817 26.7317 24.9081 27.0913 24.2025C27.5 23.4003 27.5 22.3502 27.5 20.25V9.75C27.5 7.6498 27.5 6.5997 27.0913 5.79754C26.7317 5.09193 26.1581 4.51825 25.4525 4.15873C24.6503 3.75 23.6002 3.75 21.5 3.75H8.5C6.3998 3.75 5.3497 3.75 4.54754 4.15873C3.84193 4.51825 3.26825 5.09193 2.90873 5.79754C2.5 6.5997 2.5 7.6498 2.5 9.75V20.25C2.5 22.3502 2.5 23.4003 2.90873 24.2025C3.26825 24.9081 3.84193 25.4817 4.54754 25.8413C5.3497 26.25 6.3998 26.25 8.5 26.25Z" stroke="#444444" stroke-width="2" stroke-linecap="round" stroke-linejoin="round"/>
</svg>
